<?xml version="1.0" encoding="UTF-8" standalone="no"?>
<!-- Generator: Adobe Illustrator 16.0.0, SVG Export Plug-In . SVG Version: 6.00 Build 0)  -->
<!DOCTYPE svg  PUBLIC '-//W3C//DTD SVG 1.1//EN'  'http://www.w3.org/Graphics/SVG/1.1/DTD/svg11.dtd'>
<svg id="Layer_1" xmlns="http://www.w3.org/2000/svg" xml:space="preserve" height="125px" viewBox="0 0 150 125" width="150px" version="1.1" y="0px" x="0px" xmlns:xlink="http://www.w3.org/1999/xlink" enable-background="new 0 0 150 125">
<g fill="#DCDFDF" clip-rule="evenodd" fill-rule="evenodd">
	<path d="m0 42.458c36.824-14.164 73.438-28.247 110.38-42.458 1.816 4.524 3.513 8.735 5.198 12.95 2.714 6.78 5.492 13.537 8.085 20.362 0.688 1.808 1.606 2.429 3.53 2.403 7.507-0.101 15.018-0.041 22.802-0.041v89.271h-3.191c-37.135 0.001-74.27-0.021-111.4 0.055-2.548 0.006-3.785-0.629-4.757-3.153-9.754-25.339-19.689-50.608-29.561-75.901-0.403-1.032-0.661-2.118-1.082-3.491zm42.107 72.642h98.273v-68.479h-98.273v68.479zm62.823-101.42c-19.793 7.398-39.327 14.701-58.86 22.004 0.066 0.296 0.132 0.592 0.197 0.888h67.639c-2.99-7.625-5.9-15.034-8.98-22.892zm-92.205 34.568c6.18 15.868 12.234 31.418 18.29 46.968 0.182-0.068 0.365-0.136 0.548-0.205v-53.935c-6.316 2.404-12.401 4.721-18.838 7.172z">
	<animate id="animation1"
                 attributeName="opacity"
                 from="0.5" to="1" dur="1s"
                 begin="0s;animation2.end" />
        <animate id="animation2"
                 attributeName="opacity"
                 from="1" to="0.5" dur="1s"
                 begin="animation1.end" />
	</path>
	<path d="m54.316 106.38c6.292-6.748 12.124-13.007 18.09-19.406 3.926 2.475 7.692 4.847 11.871 7.481l21.964-31.608c2.371 4.437 4.555 8.518 6.813 12.741 2.562-0.799 4.938-1.54 7.82-2.44l10.464 33.232h-77.014z">
	<animate id="animation1"
                     attributeName="opacity"
                     from="0.5" to="1" dur="1s"
                     begin="0s;animation2.end" />
            <animate id="animation2"
                     attributeName="opacity"
                     from="1" to="0.5" dur="1s"
                     begin="animation1.end" />
    	</path>
	<path d="m54.507 66.657c0.037-5.055 4.193-9.103 9.295-9.055 4.955 0.047 9.439 4.489 9.291 9.203-0.156 4.966-4.412 8.852-9.615 8.782-4.991-0.066-9.008-4.064-8.971-8.93z">
	<animate id="animation1"
                     attributeName="opacity"
                     from="0.5" to="1" dur="1s"
                     begin="0s;animation2.end" />
            <animate id="animation2"
                     attributeName="opacity"
                     from="1" to="0.5" dur="1s"
                     begin="animation1.end" />
    	</path>
</g>
</svg>
