<?xml version="1.0" encoding="UTF-8" standalone="no"?>
<svg width="574px" height="635px" viewBox="0 0 574 635" version="1.1" xmlns="http://www.w3.org/2000/svg" xmlns:xlink="http://www.w3.org/1999/xlink" xmlns:sketch="http://www.bohemiancoding.com/sketch/ns">
    <!-- Generator: Sketch 3.3.1 (12005) - http://www.bohemiancoding.com/sketch -->
    <title>india-svg</title>
    <desc>Created by travel d'globe.</desc>
    <defs></defs>
    <g id="tdg" stroke="none" stroke-width="1" fill="none" fill-rule="evenodd" sketch:type="MSPage">
        <g id="Desktop" sketch:type="MSArtboardGroup" transform="translate(-193.000000, -286.000000)" stroke="#4A4A4A" stroke-width="2">
            <g id="india-svg" sketch:type="MSLayerGroup" transform="translate(194.000000, 287.000000)">
                <path d="M222.751177,123.783431 C215.471446,129.043916 216.616715,121.979819 216.018701,113.239229 C215.69401,108.493528 212.662179,102.492436 212.511384,99.4445116 C212.390963,97.0105113 214.762931,96.3499234 217.193704,97.9753206 C219.327883,99.4023924 221.492745,103.032205 222.255594,102.763701 C225.660603,101.565222 229.201836,100.293646 231.968746,97.975318 C233.026496,97.0890554 233.290648,95.2145879 232.808671,93.9215321 C232.252895,92.4304854 230.048492,92.1077155 229.265322,90.7225252 L229.624518,85.1657867 C226.780792,80.1360977 223.318534,86.6265146 222.732272,79.5941942 C222.54721,77.3743352 224.209632,75.289109 224.14475,73.0624945 C224.094967,71.3540221 221.309747,69.5554866 222.401433,68.2403527 C224.095726,66.1992706 227.992971,67.6727062 230.029627,65.9730954 C231.908828,64.404882 231.478006,61.1330335 233.107101,59.3063595 C233.743445,58.5928398 235.287647,59.9706024 235.97527,59.3063595 C236.820209,58.4901482 235.906868,56.736692 236.681509,55.8534846 C237.590233,54.8174028 239.694397,55.3295362 240.465222,54.1871382 C242.51231,51.1532595 243.795355,47.5955774 244.654044,44.0378195 C245.487893,40.5829815 246.906954,36.6629741 245.480466,33.4077719 C244.393923,30.9283156 240.917569,30.3353284 238.318147,29.5794964 C236.396498,29.0207399 234.288829,29.9061897 232.314439,29.5794964 L227.405874,26.2468037 C225.86241,25.9914138 222.984494,27.8575678 220.048736,27.8575684 C217.112978,27.857569 214.665181,30.0086705 212.511385,30.9622671 C207.899889,33.0040152 197.885481,35.8591322 195.039054,36.1841157 C193.458148,36.3646114 196.514432,32.0064912 195.039054,31.4105869 L190.010307,30.809676 C187.425074,29.765502 184.982023,28.2831036 182.849338,26.4871681 C179.395174,23.5784131 176.930152,19.5887741 173.376551,16.8023738 C172.130535,15.8253647 169.943021,16.5915345 168.813679,15.48172 C167.386112,14.0788387 167.824514,11.404323 166.426239,9.97224413 C165.171668,8.68734245 162.847179,9.04707653 161.440704,7.93049719 C160.224025,6.96459424 160.341228,4.63492246 158.918228,4.01174745 C154.671036,2.15177295 152.394511,0.889710947 145.363297,0.889711136 C129.390377,5.61229686 135.708197,2.93683886 131.523108,2.93683871 C127.941992,2.93683859 129.95032,5.08072924 128.787606,6.17637753 C127.624892,7.27202582 122.14508,5.52103216 120.216861,6.17637731 C119.604061,6.38465013 117.618764,7.9304974 116.596541,9.97224402 C115.574317,12.0139906 112.336469,11.2644906 111.359838,11.9410715 C110.672957,12.4169227 110.375275,14.9155775 109.751557,15.4817197 C108.690161,16.4451385 107.372043,15.5556133 106.571455,16.7308046 C104.743121,19.4146372 108.354993,23.2818326 109.94736,24.2671734 C111.609832,25.2958945 114.040517,24.3335366 115.712054,25.3474628 C116.866296,26.0476067 116.378305,28.3878512 117.618765,28.9205199 C119.373677,29.6741011 121.196133,31.1482021 122.87596,31.6350483 C124.524918,32.1129483 126.036442,31.6031295 127.211735,32.3820016 C128.780076,33.4213482 126.726579,35.552785 127.720821,37.5385285 C128.869217,39.8321561 133.829591,39.1845599 134.1769,41.7260002 C134.358797,43.0570351 127.211735,46.1956804 127.211735,48.0765397 C127.211735,49.9573991 122.540988,52.2047576 122.509776,52.4120653 C120.468028,65.9730928 122.556714,68.2403505 122.509775,72.9679692 C122.479685,75.9986105 119.148756,79.097533 120.468028,81.8249917 C121.383655,83.7179576 127.367847,86.9119605 129.141139,89.269225 C130.914431,91.6264894 138.07855,90.8059409 140.196543,94.5382631 C141.270453,96.4307039 149.062883,100.796422 151.235173,101.975089 C154.802805,103.910857 153.367148,106.590746 153.367146,106.590745 C153.367143,106.590745 139.216569,110.592048 138.591233,114.361958 C137.799792,119.133248 139.136695,124.145966 138.070611,128.863492 C137.546384,131.183248 136.016856,132.557433 134.147192,134.027275 C132.028005,135.693282 128.780939,135.994557 127.211734,138.18639 C125.435294,140.667685 126.625911,144.554685 124.839149,147.028558 C122.86588,149.760661 124.647067,150.613221 121.505175,151.832521 C119.378074,152.658003 113.555627,151.832521 112.627416,155.305818 C112.270358,156.641903 112.565764,158.85508 112.051172,160.626253 C111.228025,163.459438 109.615778,165.727315 109.615778,165.727315 C109.615778,165.727315 107.566676,167.128259 106.330928,168.668958 C105.181546,170.101977 104.870697,171.655899 104.092349,172.31592 C103.025319,173.220735 101.623657,175.141056 100.288174,175.938117 C98.0609776,177.267382 96.017839,177.253832 96.017839,177.253832 C96.017839,177.253832 92.3520501,179.158516 91.182519,180.948122 C90.4030431,182.140869 90.1708179,186.200893 90.1708179,186.200893 L85.0795715,189.537214 L79.9899621,196.373563 C79.9899621,196.373563 78.38122,197.206265 76.3818889,197.204637 C74.7650181,197.203321 72.892727,196.319755 71.4090563,196.646952 C68.0907621,197.378741 65.1063878,199.655862 65.1063878,199.655862 L63.0256887,199.655862 L61.399,198.502828 L60.100814,197.204642 L58.9357753,195.281101 C58.9357753,195.281101 58.122616,192.670186 57.1404697,191.950236 C56.1583234,191.230286 54.3918514,191.950236 54.3918514,191.950236 L50.2364557,194.176633 C50.2364557,194.176633 45.6488767,199.655855 43.9119599,201.519924 C42.175043,203.383993 39.5024269,205.186416 37.7604463,207.477174 C36.0184657,209.767931 35.2857622,212.863636 35.2857622,212.863636 C35.2857622,212.863636 34.3433466,215.308367 34.6975131,216.297635 C35.0516797,217.286904 36.9299128,217.456126 36.9299128,217.456126 L38.3312334,218.906558 L39.7871225,221.078387 L42.0680883,222.388578 C42.0680883,222.388578 44.8048607,221.447836 46.2294865,222.24288 C47.6541123,223.037923 48.0679012,225.736904 48.0679012,225.736904 L46.4723166,229.57362 L44.7370365,231.611755 L45.1681281,234.705793 L46.1389027,237.180477 L48.1284723,240.274514 L50.6402631,241.585251 L53.6486277,241.585251 L55.3473469,241.973233 L55.7778928,245.85524 L56.166421,248.427602 L57.2337819,251.473073 L59.9147352,254.90871 L61.6074519,257.317366 L63.4453209,259.738027 L64.2703975,262.450085 L65.6662612,264.379083 L63.7792805,266.023234 L61.9588734,268.831878 L64.2764001,269.851218 L66.1028097,270.136612 L64.0706766,272.702425 L61.2074644,272.993821 L57.822031,273.144976 L55.1165219,270.676295 L52.0710507,269.851218 L49.0681429,270.821447 L45.3918592,271.112843 L42.7496496,273.605535 L40.0981633,273.362705 L36.9615626,273.119875 L33.7218273,270.693757 L28.8204794,270.402361 L25.6233076,270.930584 L21.6501709,269.680419 L18.7383926,269.146738 L16.9485439,269.432132 L16.5605615,271.658529 L15.8811829,273.690662 L10.8401395,275.177655 L6.61817019,275.322808 L3.57815581,276.099318 L2.9959093,278.519979 L2.70505888,280.849511 L0.921212719,281.620019 L2.36509677,282.869639 L5.49023809,284.362635 L7.32810713,282.663916 L10.0341619,281.208026 C12.0853944,281.20804 8.32398331,283.914081 8.32398331,283.914081 L7.88688916,286.86242 L10.592944,291.018362 L12.085394,293.772437 L13.7415498,295.793111 L16.2042288,297.249 L17.6546611,298.559191 L20.5178733,300.451629 L21.9732168,302.580894 L23.9087635,303.308838 L26.4805797,303.745932 L30.5513941,304.322176 L32.5835272,304.322176 L35.865826,303.600234 L37.6556747,302.678026 L41.780512,300.348494 L46.1961997,298.698886 L47.9800459,298.553188 L48.1257439,302.035208 L47.2035353,303.770488 L45.3716688,305.959233 L43.8361096,307.894234 L41.5671489,309.204425 L38.1331496,309.204425 L36.3067399,310.70888 L35.433643,312.395595 L30.9688436,312.832689 L27.6319762,313.512067 L22.5909328,314.52486 L21.4750058,311.819351 C21.4750058,311.819351 19.8582241,309.665973 18.6723647,309.690085 C17.4865053,309.714198 16.4028583,311.922485 16.4028583,311.922485 L17.1253461,316.320711 L19.3517432,318.304278 L21.6267064,321.301183 L23.3674434,323.566324 L24.914462,325.398736 L28.3113548,329.232723 L31.0294147,331.961697 L34.5175159,337.560919 L39.1923854,342.074884 L43.1106176,343.863996 L46.6467001,347.420191 C46.6467001,347.420191 48.1257453,351.077638 54.1958338,349.720752 C66.1553894,351.077638 59.9147354,351.777315 66.1553897,348.175717 C69.0477164,346.685662 75.6546863,343.361769 75.6546863,343.361769 C75.6546863,343.361769 79.0659177,345.287468 80.8501499,343.361769 C79.9899612,339.140932 82.6291247,335.834348 82.6291247,335.834348 L84.4723997,333.466668 L84.8539148,326.762291 L86.9843978,321.598263 L90.38374,319.453491 L95.450603,319.071976 C95.450603,319.071976 98.1813079,319.051459 98.2469513,319.453491 C98.3125947,319.855523 95.71991,320.721342 95.71991,320.721342 L91.3336554,320.512697 L89.6150782,323.269009 L89.8245077,328.405131 C89.8245077,328.405131 93.6286416,326.178715 93.5660017,326.530462 C93.5033618,326.882209 89.589978,329.722106 89.589978,329.722106 L90.1476724,332.155254 L93.426382,333.960113 L92.1705892,336.57759 L90.7061512,339.140944 L91.5344567,344.582191 L93.8977946,345.628554 L94.5252988,349.665759 L93.4789355,354.261443 L91.1155977,359.624251 L89.2832853,363.674007 L87.4086164,368.208509 L87.4086164,373.361888 L87.8180629,377.268102 L89.8331359,377.268102 L88.9177641,381.654356 L88.9177641,384.77619 L89.7374415,387.619568 L92.9298693,387.479949 L92.0921511,390.113898 L92.0921511,392.197996 L89.5366401,393.026302 L89.5366401,396.444631 L90.8622428,404.031157 L93.9401511,417.364054 L95.3347793,434.995354 L97.0094312,452.626654 L106.208643,469.634372 L109.905428,479.008501 C109.905428,479.008501 108.864717,479.965642 109.178222,481.031418 C109.491727,482.097193 110.951791,482.565665 110.951791,482.565665 L113.795169,484.379153 L117.422144,496.548029 L121.024018,504.674993 C121.024018,504.674993 119.70704,508.000154 119.707044,512.060718 C121.024019,514.386171 124.839151,525.96863 124.839151,525.96863 L128.139132,533.031125 C128.139132,533.031125 127.211732,537.847536 130.141138,541.394899 C131.523111,545.748232 138.808173,549.902963 139.673529,551.056968 C140.538885,552.210973 141.232008,556.185247 141.232008,556.185247 C141.232008,556.185247 141.98121,559.322756 144.29266,560.292262 C143.501382,564.462221 144.70049,569.54741 147.005047,575.906136 C149.309603,582.264862 151.660943,581.1933 153.204789,584.882584 C153.204782,588.648683 155.070829,595.180713 155.070829,595.180713 C155.070829,595.180713 153.748355,599.080893 155.699118,605.087436 C157.649881,611.093979 161.270571,614.270176 161.270571,614.270176 L168.220181,623.751765 C168.220181,623.751765 170.981125,628.172485 174.437179,630.454295 C177.893233,632.736105 181.596218,632.583103 181.596218,632.583103 C181.596218,632.583103 185.20878,633.663088 186.401331,632.382302 C189.398033,630.800101 192.234768,626.966156 192.234768,626.966156 L194.904288,619.094298 L197.152083,616.322595 L197.284423,612.724635 L199.405827,609.600025 L205.17773,608.679594 L208.136295,607.131663 L210.814815,605.765142 L213.889363,605.825612 L217.988926,606.354476 L221.470903,606.48632 L223.262201,605.830569 L221.859992,604.26529 L219.088289,604.011515 L215.005083,603.04697 L213.4289,600.804626 L214.090104,597.327606 L216.018697,593.767811 L217.942335,591.31531 L220.052834,588.323536 L220.983674,585.220736 L222.961834,583.159802 L225.248786,583.027462 L228.025941,582.895122 L230.890828,582.895122 L233.403303,582.762782 L232.874439,558.236778 L231.817207,551.281747 L233.051388,546.404996 L240.191795,533.830228 L243.277743,524.131745 L244.026678,515.05184 L242.21952,501.595796 L240.326117,494.475711 L241.95137,491.836348 L241.945918,484.353444 L239.394781,479.212509 L241.33428,473.184353 L244.155548,465.91111 L248.46973,461.618242 L254.002232,460.163494 L254.266912,463.459105 L257.659175,463.419948 L262.105696,458.097108 L266.601783,451.534635 L277.555265,450.536882 L281.095233,448.990933 L283.905597,447.844979 L285.002482,438.031504 L287.906029,435.562646 L292.628135,432.086122 L297.339336,428.069333 L302.358835,426.531811 L304.331542,425.606423 L324.72527,410.260943 L335.259922,397.659904 L339.706444,394.265658 L345.261746,389.278377 L352.314422,382.445772 L353.851944,377.966041 L356.089331,376.820087 L360.830271,374.96832 L364.128856,373.838226 L366.547653,371.733179 L368.751831,368.212045 L371.704943,366.272547 L374.691761,365.920136 L376.493467,363.072598 L375.397078,360.830255 L377.071896,358.989392 L380.191054,356.663778 L381.193764,354.779298 L380.141488,351.012815 L378.730854,349.29884 L377.629013,346.659476 L377.364333,342.570818 L379.332084,340.206543 L382.852721,338.051931 L386.643491,336.553565 L391.064239,334.802912 L394.89367,332.339506 L397.22424,328.945756 L399.95183,326.48235 L401.885876,325.909373 L402.938647,327.926193 L404.992561,329.869073 L408.127134,328.00958 L410.591582,325.112313 L410.969147,322.859671 L413.095699,322.166168 L417.119995,320.347053 L421.065662,320.725327 L422.38112,322.229214 L427.042957,323.930738 L430.240576,322.678326 L419.034741,317.50504 L417.27088,311.865641 L416.207604,303.061209 L414.199352,300.989911 L415.837122,297.603863 L411.931125,297.603863 L410.986148,291.374385 L406.899515,288.602501 L409.466677,283.601351 L411.482722,277.112607 L402.307807,272.395517 L396.512565,266.64632 L399.72506,261.873976 L402.733543,261.873976 L403.796818,257.975771 L405.875908,256.211909 L408.32548,256.401046 L411.207871,256.022772 L412.908687,255.077795 L412.908687,252.832945 L410.578123,250.147483 L407.561848,249.958346 L404.679457,249.958346 L403.048771,246.697681 L399.276657,243.610569 L396.197337,243.115413 L397.064392,239.602565 L398.702162,235.649107 L401.032727,233.783239 L403.537552,230.46732 L402.096002,227.766274 L405.60885,229.207116 L408.136343,231.112653 L408.136343,233.687608 L411.467137,232.994814 L413.727572,232.427403 L411.774573,228.655289 L414.216353,228.655289 L416.106306,232.427403 L417.673239,234.735299 L419.674407,236.176849 L422.304615,236.854766 L425.179922,234.916644 L427.550864,233.608978 L429.17305,235.498931 L429.732669,239.460181 L430.110234,243.49227 L430.110234,247.398267 L431.055211,250.154567 L434.079277,252.28891 L436.702402,252.107566 L448.567736,252.107566 L457.946664,252.107566 L462.986066,253.052542 L473.91705,252.871197 L477.570865,253.374854 L482.414046,255.131632 L484.556182,255.887472 L480.846405,258.091945 L480.46884,260.730653 L479.208635,263.880103 L476.436751,267.959653 L473.365223,270.912881 L469.600902,271.220317 L467.403512,274.188422 L463.568353,274.566696 L460.36365,277.653808 L460.36365,283.930039 L460.36365,287.765198 L461.993628,289.269794 L462.560331,293.0497 L462.749468,297.073996 L463.694444,299.263593 L465.80612,298.830066 L465.80612,295.758538 L466.12064,293.435057 L467.617443,297.088872 L468.814602,298.915779 L470.948237,299.482482 L472.941613,297.726412 L473.44527,293.843792 L473.137834,291.598941 L474.264155,289.346299 L475.383393,285.652106 L477.903094,283.769945 L480.919368,282.510449 L482.108735,284.022128 L483.423485,288.439574 L483.801759,290.495288 L483.423485,293.645446 L483.864805,297.535859 L485.691712,300.552133 L487.203391,303.74196 L488.841162,307.072754 L489.79393,312.613688 L490.172204,317.701261 L492.691905,319.024511 L493.251524,316.038697 L494.55919,317.668675 L497.048431,318.787913 L499.875569,316.645777 L502.206133,314.385342 L503.584637,311.187723 L503.584637,307.360356 L501.402832,305.029792 L502.347808,301.327807 L500.843213,299.382601 L503.103648,296.381911 L504.741418,294.192314 L505.250034,289.845705 L505.643184,284.30973 L504.517571,279.103858 L503.383457,276.780378 L501.626679,274.205423 L502.942138,272.953011 L505.336456,274.15017 L508.840803,273.653597 L511.35342,275.10223 L514.928605,275.291367 L516.992111,276.992183 L520.155019,276.725124 L519.588317,273.850526 L519.588317,269.967196 L521.281341,266.336758 L522.785936,262.461221 L523.919341,259.515785 L525.297845,256.010729 L527.809754,253.49882 L527.809754,250.364247 L527.432188,247.662492 L524.982617,247.166628 L524.605051,243.598527 L524.605051,241.401138 L526.927823,241.023572 L529.377395,240.449077 L529.424856,237.196913 L529.424856,234.2281 L531.062627,232.401193 L531.881512,228.692125 L532.826488,225.235239 L532.637351,222.612115 L531.51103,220.666908 L531.889304,217.668343 L533.978311,215.011925 L538.388674,211.791638 L542.279087,207.522951 L546.870086,203.254972 L553.287992,198.356537 L557.611933,196.592675 L561.51793,196.025265 L563.203162,198.033517 L564.967023,199.939054 L567.345757,199.946846 L567.794161,197.426437 L564.974816,194.599299 L563.47022,191.583025 L564.698548,188.039717 L568.604545,184.45674 L571.054117,183.13349 L571.431683,179.432214 L569.604775,175.90449 L565.714362,173.636264 L559.997042,173.8254 L555.539927,173.258698 L552.586698,174.770377 L548.680701,174.211467 L550.255425,171.258238 L551.641721,168.264632 L553.571344,165.594046 L551.373954,162.719447 L548.939967,160.89254 L546.380597,163.53054 L543.938817,161.963608 L545.198313,159.521828 L547.340449,157.20614 L545.324405,155.20568 L541.237771,152.937453 L538.662108,154.12682 L536.653856,156.016773 L534.394129,158.221954 L532.889534,160.607772 L529.636661,162.742115 L526.762063,162.552978 L522.674721,161.426657 L520.35124,161.615794 L517.468849,159.985816 L514.845725,159.607542 L510.837013,162.671278 L508.702669,165.695344 L506.19076,167.333114 L505.253576,170.83817 L502.040372,171.712308 L500.095166,174.4764 L496.252214,174.287971 L492.810205,176.099294 L490.613524,176.414523 L490.613524,180.367981 L486.911539,183.95875 L485.722172,187.463806 L482.776736,187.463806 L481.839552,192.605923 L479.271681,194.488792 L476.130023,195.622197 L472.105727,195.622197 L470.419787,197.678619 L466.151808,197.489482 L462.631169,198.174484 L462.253603,201.702207 L463.19858,203.332894 L465.83658,205.781757 L470.050013,204.585307 L472.294864,207.041962 L470.908568,209.405112 L472.987658,213.484662 L473.55436,216.122662 L468.262775,217.997739 L464.553707,218.564442 L460.907685,219.509418 L454.988476,220.454395 L445.625133,220.328303 L442.616651,217.51675 L438.481848,217.712971 L436.433218,220.162543 L433.479989,220.792291 L427.432565,221.926405 L421.029534,220.863129 L418.391534,220.177419 L415.942671,220.926175 L411.185203,217.476373 L408.231974,213.712051 L410.051089,210.317503 L408.042837,206.994501 L408.53941,203.285433 L409.736569,199.772585 L409.232204,196.708849 L406.712503,192.613715 L402.955265,192.991989 L397.994723,194.196462 L396.482105,197.338598 L396.292968,199.969514 L395.229692,202.922743 L394.084245,204.993332 L393.328405,208.954583 L393.013177,214.120077 L394.650947,216.702824 L396.634406,219.608591 L396.886589,224.877508 L395.122727,228.090003 L393.421911,232.295644 L391.413659,229.909827 L387.129388,229.27937 L380.467091,230.224347 L380.656228,232.918309 L377.010205,230.96531 L374.805024,227.263326 L371.796542,229.964372 L370.024888,231.027648 L367.583817,229.831197 L362.62942,227.766983 L355.133362,227.452463 L352.306225,227.452463 L349.28995,227.452463 L348.911676,224.002661 L346.273676,222.87634 L342.942173,224.136544 L341.871106,226.010913 L338.729448,222.631949 L335.405738,220.568444 L329.302351,220.190878 L328.735649,214.35455 L323.706164,212.968254 L319.997095,210.070987 L316.980821,210.259416 L314.965485,211.771803 L311.515683,211.96094 L308.388902,210.385507 L304.427651,210.511598 L302.419399,211.582666 L292.237171,209.140887 L290.819706,206.132404 L288.244752,204.998291 L285.503328,205.810092 L280.730984,201.967141 L275.816965,201.967141 L272.127731,199.64366 L268.663053,197.446271 L263.512436,195.619364 L263.13487,192.910526 L259.685068,191.021281 L255.660772,188.634755 L253.330207,186.618711 L244.588821,184.665712 L241.824729,182.728298 L244.596613,178.8223 L245.730018,174.499068 L246.108292,167.458497 L248.691039,163.315902 L251.967288,158.165284 L256.432196,154.889743 L258.818722,151.573825 L253.789237,147.415645 L247.20557,143.525232 L244.503815,143.714369 L243.747976,138.871187 L237.203978,135.595646 L230.786072,134.461533 L227.454569,129.925787 L222.751177,123.783431 Z" id="Path-141" sketch:type="MSShapeGroup"></path>
                <path d="M499.206478,517.487821 C496.505296,517.487821 496.522857,521.564159 496.522857,521.564159 L496.800722,525.699756 L496.800722,528.93908 C496.800722,528.93908 497.200485,529.465371 497.198693,529.874413 C497.1969,530.283454 496.793499,530.587349 496.793499,530.587349 C496.793499,530.587349 496.341118,531.31362 496.114928,531.676756 L496.114928,534.03765 L496.114928,535.177835 L496.388818,537.361778 C496.388818,537.361778 495.198442,539.498163 494.671318,542.544257 C494.483656,543.628705 494.380057,544.828454 494.444163,546.088153 C494.502704,547.238492 494.663541,548.218746 494.880961,549.051937 C495.37532,550.946402 493.590324,552.891883 493.330953,555.661291 C493.228602,556.754132 494.23483,558.463202 494.339492,558.581657 C494.475322,558.735388 496.250565,563.358439 496.250565,563.358439 C496.250565,563.358439 497.979019,558.089431 498.146033,557.187261 C498.19351,556.930804 499.455255,553.880605 499.455255,553.880605 C499.455255,553.880605 498.618909,547.286084 498.651984,547.100446 C498.737671,546.619525 498.822584,546.134356 498.905412,545.654594 C498.929486,545.515151 499.953383,545.376164 499.977073,545.237872 C500.093911,544.555792 498.207049,543.942929 498.309878,543.323058 C498.376,542.924454 497.439797,542.59693 497.497499,542.243376 C497.739418,540.761062 497.89828,539.741177 497.89828,539.741177 C497.89828,539.741177 497.829027,538.895581 497.8516,537.062302 C497.860788,536.316033 500.337556,535.01136 500.543402,534.587767 C500.749248,534.164175 499.981194,532.679995 499.981194,532.679995 L499.581642,529.492813 L499.723717,526.675947 L500.499227,525.181859 L501.087014,522.866612 L501.90766,520.283117 L501.092143,518.555146 C501.092143,518.555146 501.90766,517.487821 499.206478,517.487821 Z" id="Path-142" sketch:type="MSShapeGroup" transform="translate(497.615657, 540.423130) rotate(3.000000) translate(-497.615657, -540.423130) "></path>
                <path d="M487.481952,574.819832 L484.798016,577.427333 L484.798016,583.279879 L489.550929,582.352227 L492.139321,578.547812 L487.481952,574.819832 Z" id="Path-143" sketch:type="MSShapeGroup"></path>
            </g>
        </g>
    </g>
</svg>